<?xml version="1.0" encoding="utf-8"?>
<!-- Generator: Adobe Illustrator 24.0.1, SVG Export Plug-In . SVG Version: 6.00 Build 0)  -->
<svg version="1.1" id="Layer_1" xmlns="http://www.w3.org/2000/svg" xmlns:xlink="http://www.w3.org/1999/xlink" x="0px" y="0px"
	 viewBox="0 0 200 200" style="enable-background:new 0 0 200 200;" xml:space="preserve">
<style type="text/css">
	.st0{fill:#2C3E50;}
	.st1{fill:#2980B9;}
	.st2{fill:#85B1CE;}
	.st3{fill:#E55039;}
	.st4{fill:#E58E26;}
	.st5{fill:#903889;}
</style>
<path class="st0" d="M8.6,46l0-0.1c4.6-18.3,18.9-32.6,37.2-37.2l0.1,0c35.5-8.9,72.7-8.9,108.2,0l0,0c18.3,4.6,32.6,18.9,37.2,37.2
	l0,0c8.9,35.5,8.9,72.7,0,108.2l0,0.1c-4.6,18.3-18.9,32.6-37.2,37.2l-0.1,0c-35.5,8.9-72.7,8.9-108.2,0l0,0
	c-18.3-4.6-32.6-18.9-37.2-37.2l0,0C-0.2,118.6-0.2,81.5,8.6,46z"/>
<g>
	<path class="st1" d="M89.1,149.7c-0.4,0.1-0.8,0.3-1.2,0.3c-16.8,1.3-31.3-3.6-42.6-16.5c-6.4-7.4-10.5-15.8-11.9-25.6
		c-1.5-10.4-0.5-20.4,4.2-29.8c7.4-14.8,19-24.5,35.5-27.7c4.7-0.9,9.3-0.6,14-0.6c0.6,0,1.3,0.2,1.9,0.4c-0.2,0.1-0.4,0.3-0.6,0.3
		C71,53.9,59.3,64.4,52,80.3c-0.9,2-1.9,4.1-2,6.4c-1.5,4.7-2.2,9.5-2.1,14.4c0,3.3,0.7,6.5,1.4,9.7c0,1.3,0.3,2.5,0.9,3.6
		c4.5,15.4,14.3,26.1,28.9,32.5C82.3,148.2,85.7,148.8,89.1,149.7z"/>
	<path class="st2" d="M49.3,110.7c-0.7-3.2-1.4-6.4-1.4-9.7c-0.1-4.9,0.7-9.7,2.1-14.4c0.2-0.4,0.5-0.8,0.7-1.2
		c2.3-5.5,5.9-10.1,10.5-13.9c8.4-6.7,17.9-8.7,28.4-6.6c-7.9,2.1-14.3,6.6-19.3,13.1c-5.7,7.5-7.7,16.1-6.9,25.3
		c1.2,13.3,8,23,19.8,29.2c1.8,1,3.9,1.6,5.8,2.3c-4.5,1.2-9,1-13.5,0.1c-12-2.4-19.9-9.8-24.9-20.7
		C50.2,113.2,49.8,111.9,49.3,110.7z"/>
	<path class="st3" d="M50.7,114.4c5,10.9,12.9,18.3,24.9,20.7c4.5,0.9,9,1.1,13.5-0.1c4.9-0.5,9.2-2.6,13.1-5.4
		c2.2-1.6,4.1-3.5,5.8-5.6c0.7-0.9,1.1-0.8,1.9-0.2c3.2,2.6,6.4,5.1,9.6,7.6c1,0.7,0.9,1.3,0.1,2.1c-7.6,9.1-17.4,14.2-28.9,16.2
		c-0.5,0.1-1.1,0.1-1.6,0.1c-3.3-0.9-6.8-1.5-10-2.9c-14.6-6.4-24.4-17.1-28.9-32.5C50.4,114.3,50.5,114.4,50.7,114.4z"/>
	<path class="st4" d="M89.7,65c-10.5-2.1-20-0.2-28.4,6.6c-4.7,3.7-8.2,8.4-10.5,13.9c-0.2,0.4-0.5,0.8-0.7,1.2c0-2.3,1-4.4,2-6.4
		c7.3-15.8,19-26.3,36.4-29.8c0.2,0,0.4-0.2,0.6-0.3c6.7,0.7,12.9,3,18.7,6.4c4.3,2.5,8,5.9,11.4,9.5c0.9,1,0.7,1.5-0.2,2.2
		c-3.1,2.3-6.1,4.6-9.1,7.1c-1.1,1-1.7,0.7-2.6-0.2C102.4,70,96.7,66.4,89.7,65z"/>
	<path class="st2" d="M158,100.4c-3.7,4.5-8.1,4.8-12.7,3.1c-5-1.8-7.8-5.7-8.3-11c-0.8-8.1,3.7-14.1,11.3-15.3
		c9-1.4,16.4,3.1,18.1,11.3c1.4,7.2,1.1,14.4-1.4,21.4c-3.8,10.5-13.8,11.5-21.3,8.5c-0.9-0.4-1.7-0.9-2.5-1.6
		c-4.5-3.5-4.4-4.9,0.7-7.1c0.8-0.3,1.5-0.6,2.3-1c0.9-0.5,1.5-0.4,2.2,0.5c2.6,3,6.6,2.9,9.1-0.2
		C157.1,107.3,157.7,105.4,158,100.4z M146.2,90.8c0,3.1,2.4,5.6,5.3,5.6c2.8,0,5.4-2.6,5.4-5.3c0-3-2.5-5.5-5.4-5.5
		C148.5,85.5,146.2,87.8,146.2,90.8z"/>
	<path class="st2" d="M128.2,98.5c0,6.2,0,12.3,0,18.5c0,1.6-0.3,2.3-2.1,2.3c-6.8,0-6.8,0.1-6.8-6.8c0-6.8,0-13.7,0-20.5
		c0-1.9-0.4-2.3-2.2-1.5c-4.8,2.1-4.8,2.1-4.9-3.3c0-1.9,0.6-2.8,2.3-3.5c3.8-1.7,7.6-3.5,11.4-5.4c2.2-1.1,2.4-0.3,2.4,1.6
		C128.1,86.2,128.2,92.3,128.2,98.5z"/>
	<path class="st2" d="M94.5,105.3c-3,0-5.9-0.1-8.9,0c-1.4,0-2-0.2-2.1-1.9c-0.1-5.1-0.2-5.1,4.9-5.1c5.1,0,10.2,0.1,15.3,0
		c1.8,0,2.2,0.6,2.2,2.2c0,4.8,0,4.8-4.8,4.8C98.9,105.3,96.7,105.3,94.5,105.3z"/>
	<path class="st5" d="M50.7,114.4c-0.2,0-0.3,0-0.5,0c-0.6-1.1-0.9-2.3-0.9-3.6C49.8,111.9,50.2,113.2,50.7,114.4z"/>
</g>
</svg>
